HIERARCHY
ROOT Hips
{
	OFFSET 0.00000 0.00000 0.00000
	CHANNELS 6 Xposition Yposition Zposition Zrotation Yrotation Xrotation 
	JOINT LHipJoint
	{
		OFFSET 0 0 0
		CHANNELS 3 Zrotation Yrotation Xrotation
		JOINT LeftUpLeg
		{
			OFFSET 1.37590 -1.78394 0.89329
			CHANNELS 3 Zrotation Yrotation Xrotation
			JOINT LeftLeg
			{
				OFFSET 2.47928 -6.81178 0.00000
				CHANNELS 3 Zrotation Yrotation Xrotation
				JOINT LeftFoot
				{
					OFFSET 2.63345 -7.23535 0.00000
					CHANNELS 3 Zrotation Yrotation Xrotation
					JOINT LeftToeBase
					{
						OFFSET 0.23938 -0.65768 2.27012
						CHANNELS 3 Zrotation Yrotation Xrotation
						End Site
						{
							OFFSET 0.00000 -0.00000 1.18363
						}
					}
				}
			}
		}
	}
	JOINT RHipJoint
	{
		OFFSET 0 0 0
		CHANNELS 3 Zrotation Yrotation Xrotation
		JOINT RightUpLeg
		{
			OFFSET -1.33617 -1.78394 0.89329
			CHANNELS 3 Zrotation Yrotation Xrotation
			JOINT RightLeg
			{
				OFFSET -2.56922 -7.05888 0.00000
				CHANNELS 3 Zrotation Yrotation Xrotation
				JOINT RightFoot
				{
					OFFSET -2.56568 -7.04915 0.00000
					CHANNELS 3 Zrotation Yrotation Xrotation
					JOINT RightToeBase
					{
						OFFSET -0.27533 -0.75646 2.18105
						CHANNELS 3 Zrotation Yrotation Xrotation
						End Site
						{
							OFFSET -0.00000 -0.00000 1.15233
						}
					}
				}
			}
		}
	}
	JOINT LowerBack
	{
		OFFSET 0 0 0
		CHANNELS 3 Zrotation Yrotation Xrotation
		JOINT Spine
		{
			OFFSET 0.06190 2.15152 -0.00935
			CHANNELS 3 Zrotation Yrotation Xrotation
			JOINT Spine1
			{
				OFFSET 0.06334 2.15332 0.00872
				CHANNELS 3 Zrotation Yrotation Xrotation
				JOINT Neck
				{
					OFFSET 0 0 0
					CHANNELS 3 Zrotation Yrotation Xrotation
					JOINT Neck1
					{
						OFFSET -0.04202 1.66908 0.23524
						CHANNELS 3 Zrotation Yrotation Xrotation
						JOINT Head
						{
							OFFSET 0.07510 1.69357 -0.24440
							CHANNELS 3 Zrotation Yrotation Xrotation
							End Site
							{
								OFFSET 0.02556 1.71719 -0.11000
							}
						}
					}
				}
				JOINT LeftShoulder
				{
					OFFSET 0 0 0
					CHANNELS 3 Zrotation Yrotation Xrotation
					JOINT LeftArm
					{
						OFFSET 3.67168 1.26306 -0.41342
						CHANNELS 3 Zrotation Yrotation Xrotation
						JOINT LeftForeArm
						{
							OFFSET 4.68510 -0.00000 -0.00000
							CHANNELS 3 Zrotation Yrotation Xrotation
							JOINT LeftHand
							{
								OFFSET 3.39626 -0.00000 -0.00000
								CHANNELS 3 Zrotation Yrotation Xrotation
								JOINT LeftFingerBase
								{
									OFFSET 0 0 0
									CHANNELS 3 Zrotation Yrotation Xrotation
									JOINT LeftHandIndex1
									{
										OFFSET 0.48608 -0.00000 -0.00000
										CHANNELS 3 Zrotation Yrotation Xrotation
										End Site
										{
											OFFSET 0.39189 -0.00000 -0.00000
										}
									}
								}
								JOINT LThumb
								{
									OFFSET 0 0 0
									CHANNELS 3 Zrotation Yrotation Xrotation
									End Site
									{
										OFFSET 0.39787 -0.00000 0.39787
									}
								}
							}
						}
					}
				}
				JOINT RightShoulder
				{
					OFFSET 0 0 0
					CHANNELS 3 Zrotation Yrotation Xrotation
					JOINT RightArm
					{
						OFFSET -3.04136 1.42992 -0.76390
						CHANNELS 3 Zrotation Yrotation Xrotation
						JOINT RightForeArm
						{
							OFFSET -5.55576 -0.00000 -0.00000
							CHANNELS 3 Zrotation Yrotation Xrotation
							JOINT RightHand
							{
								OFFSET -3.32774 -0.00000 -0.00000
								CHANNELS 3 Zrotation Yrotation Xrotation
								JOINT RightFingerBase
								{
									OFFSET 0 0 0
									CHANNELS 3 Zrotation Yrotation Xrotation
									JOINT RightHandIndex1
									{
										OFFSET -0.50763 -0.00000 -0.00000
										CHANNELS 3 Zrotation Yrotation Xrotation
										End Site
										{
											OFFSET -0.40926 -0.00000 -0.00000
										}
									}
								}
								JOINT RThumb
								{
									OFFSET 0 0 0
									CHANNELS 3 Zrotation Yrotation Xrotation
									End Site
									{
										OFFSET -0.41551 -0.00000 0.41551
									}
								}
							}
						}
					}
				}
			}
		}
	}
}
MOTION
Frames: 10
Frame Time: 0.0465116
0.00 0.00 0.00 -64.1550 -82.5644 67.6945 0.0000 0.0000 0.0000 -4.5250 -8.1260 -24.8830 5.0873 13.4815 41.1985 0.3376 0.6938 -11.2485 0.9977 -6.3565 -17.8224 0.0000 0.0000 0.0000 30.8728 2.4032 -2.7148 -0.8619 -5.9200 16.5526 -0.3839 -4.0497 -13.9017 -0.6013 -4.9636 13.8049 6.2204 -0.0636 -1.0113 6.7504 -0.0818 -4.3964 3.5479 -0.2508 -3.9945 -10.1867 -11.3137 -4.8564 18.0731 -17.0731 9.2533 5.9065 -7.9931 6.0672 0.0000 -0.0000 0.0000 -32.4647 -44.5231 -52.3004 27.8473 -38.9753 -10.0275 -0.0000 0.0000 -22.1142 46.6805 40.6565 34.6409 -7.1250 0.0000 -0.0000 29.0982 80.2379 23.9984 0.0000 -0.0000 0.0000 32.7618 51.8992 -39.5956 -35.3144 45.0353 -15.0354 0.0000 0.0000 5.8402 -57.6951 -41.6994 46.4538 7.1250 -0.0000 -0.0000 -85.4710 -81.4291 76.7796
0.00 0.00 0.00 -93.3818 -82.8779 98.5487 0.0000 0.0000 0.0000 -4.5559 -8.7231 -26.8092 1.9157 8.6882 24.8246 0.0074 6.5558 -9.5377 0.7636 -5.5804 -15.5716 0.0000 0.0000 0.0000 31.5518 2.3563 0.8547 -0.7037 -5.3619 14.9436 -0.5197 -1.9176 -14.4481 -0.3163 -3.6156 9.9976 7.6634 1.6168 -1.8361 6.5564 2.0573 -4.6877 2.5155 0.7417 -3.8181 -4.6563 -5.1243 -8.7621 13.8508 -8.3796 10.8894 4.4573 -3.5323 5.5215 -0.0000 0.0000 0.0000 -42.0016 -35.7000 -35.4747 30.0843 -40.9656 -11.4649 -0.0000 0.0000 -18.8087 51.0959 38.9504 37.9177 -7.1250 0.0000 -0.0000 43.7776 79.4612 35.9617 -0.0000 0.0000 0.0000 40.8802 46.2928 -8.7942 -60.9002 56.5451 -35.0911 0.0000 0.0000 2.5479 -42.7832 -35.1988 28.0778 7.1250 -0.0000 -0.0000 -17.1347 -73.2350 11.5538
0.00 0.00 0.00 -102.1060 -82.4776 108.2050 0.0000 0.0000 0.0000 -4.4166 -9.9670 -27.2413 0.9851 6.3177 17.7089 -0.1683 8.3758 -7.5297 0.5593 -4.7903 -13.3116 0.0000 0.0000 0.0000 31.7216 2.4340 2.2322 -0.6532 -5.1698 14.3936 -0.5882 -1.1579 -14.9524 -0.2051 -2.9160 8.0450 8.6753 2.5242 -2.2729 6.1121 3.2116 -4.9076 1.5014 1.2653 -3.7164 -1.7686 -2.0633 -10.3602 11.7815 -4.3698 11.7811 3.6463 -1.4853 5.5750 0.0000 0.0000 0.0000 -44.3473 -28.2423 -9.2605 37.4173 -46.4631 -16.5418 -0.0000 0.0000 -16.7741 46.9777 38.4118 33.6538 -7.1250 0.0000 -0.0000 28.5516 77.9739 22.2771 0.0000 0.0000 0.0000 38.6904 43.0527 7.0503 -73.2846 58.9175 -45.5766 0.0000 0.0000 3.1223 -39.6830 -31.9941 23.7307 7.1250 -0.0000 -0.0000 -11.7679 -68.7126 6.7273
0.00 0.00 0.00 -107.8790 -81.9215 114.8570 0.0000 0.0000 0.0000 -4.1894 -11.2415 -27.8284 0.4834 4.4585 12.3703 -0.2132 8.8547 -6.9278 0.5307 -4.6680 -12.9639 0.0000 0.0000 0.0000 31.8511 2.3122 3.2639 -0.6618 -5.2028 14.4879 -0.6664 -0.2673 -15.5251 -0.0999 -2.0385 5.6119 9.6161 3.3956 -2.5011 5.6368 4.3476 -5.2119 0.5060 1.7731 -3.7731 0.2294 0.2493 -11.3324 10.2091 -1.3726 12.4174 3.0681 0.0200 5.7047 0.0000 0.0000 0.0000 -41.3859 -21.0360 17.1587 49.8723 -52.9439 -26.0722 -0.0000 0.0000 -5.8609 38.8011 32.5157 23.3741 -7.1250 0.0000 -0.0000 10.2054 69.0113 5.8953 0.0000 0.0000 0.0000 31.8461 40.6495 21.6467 -82.4491 59.7835 -53.4655 0.0000 0.0000 7.5626 -35.5793 -24.6394 16.6071 7.1250 -0.0000 -0.0000 -7.1732 -59.2574 2.5064
0.00 0.00 0.00 -112.7580 -80.7955 120.5320 0.0000 0.0000 0.0000 -4.1000 -12.0121 -29.0854 0.3403 3.7487 10.3707 -0.1253 7.7972 -7.7961 0.6119 -5.0068 -13.9280 0.0000 0.0000 0.0000 32.1490 1.9459 4.8402 -0.7804 -5.6401 15.7438 -0.7452 1.4232 -15.8882 -0.0071 -0.5450 1.4977 10.7912 4.4972 -2.6834 5.1357 5.7888 -5.5600 -0.6216 2.4156 -3.8064 0.6960 1.5884 -11.9852 9.4863 0.4135 13.1386 2.9280 0.9079 5.9489 0.0000 0.0000 0.0000 -31.2529 -17.0235 48.0404 78.0846 -59.4567 -49.6998 -0.0000 -0.0000 31.0186 35.0167 17.4692 11.8778 -7.1250 0.0000 -0.0000 7.1660 50.8625 1.0397 0.0000 0.0000 0.0000 17.7837 40.4454 38.1311 -87.5969 59.9782 -57.9190 0.0000 0.0000 24.8142 -33.6951 -9.0262 5.9720 7.1250 -0.0000 -0.0000 -5.9969 -40.7170 -0.6360
0.00 0.00 0.00 -114.4910 -80.2683 122.2220 0.0000 0.0000 0.0000 -5.0244 -11.4969 -29.7623 0.5377 4.6984 13.0502 -0.0750 6.8370 -7.6238 0.6162 -5.0237 -13.9763 0.0000 0.0000 0.0000 32.1336 1.7133 5.9603 -0.9857 -6.3195 17.7142 -0.7493 2.4495 -15.7059 -0.0090 0.6132 -1.6849 11.0106 4.8502 -2.7733 4.8968 6.2278 -5.3467 -0.9617 2.6485 -3.4438 -0.0936 1.0108 -12.5609 9.4791 -0.2466 13.3358 3.0114 0.5719 6.1383 0.0000 0.0000 0.0000 -25.1320 -17.7911 59.0239 99.2242 -59.6760 -67.9797 -0.0000 -0.0000 59.4250 42.8512 15.0963 13.5826 -7.1250 0.0000 -0.0000 15.2616 49.5595 1.7522 0.0000 0.0000 0.0000 11.0736 41.3909 43.0838 -86.8091 59.9615 -57.2369 0.0000 0.0000 28.8961 -31.5337 -1.6272 0.9982 7.1250 -0.0000 -0.0000 -3.9826 -31.8728 -1.2819
0.00 0.00 0.00 -117.0330 -80.8287 124.2230 0.0000 0.0000 0.0000 -7.1346 -12.8688 -28.6415 0.9694 6.2683 17.5650 -0.1637 7.1678 -3.1034 0.2833 -3.4229 -9.4584 0.0000 0.0000 0.0000 30.7570 1.4844 6.0938 -1.7901 -8.4146 23.9805 -0.5756 3.3691 -13.5786 -0.1922 2.8231 -7.7865 9.6371 4.5112 -2.4257 4.1937 5.8479 -4.8470 -0.9788 2.5543 -3.1850 -2.2135 -1.6121 -12.5099 10.4667 -3.4642 12.1375 3.3781 -1.0536 5.9688 -0.0000 0.0000 0.0000 -23.0803 -15.4760 58.6742 116.7294 -57.1203 -82.9245 -0.0000 -0.0000 63.3824 49.0684 17.3240 18.9513 -7.1250 0.0000 -0.0000 22.8938 53.9410 5.2434 -0.0000 0.0000 0.0000 10.4276 40.4141 38.9719 -67.8807 58.0681 -40.9684 0.0000 0.0000 35.1562 -40.0881 -5.3747 4.5080 7.1250 -0.0000 -0.0000 -11.3221 -36.7801 -2.3258
0.00 0.00 0.00 -118.8830 -83.0397 125.0260 0.0000 0.0000 0.0000 -11.2575 -11.6853 -27.2004 1.6403 8.0728 22.9353 -0.0313 3.2009 -1.8457 0.0005 -0.1382 -0.3796 0.0000 0.0000 0.0000 26.8199 -0.3201 0.7793 -4.2232 -12.4517 37.3491 -0.0179 0.3279 -2.4338 -0.1167 2.2024 -6.0654 6.4852 3.5869 -1.6662 3.2924 4.7375 -4.1722 -0.2502 2.1503 -3.1404 -6.1021 -6.0096 -11.3915 12.4560 -9.1014 11.7101 4.1205 -3.8740 6.2969 0.0000 0.0000 0.0000 -34.7785 -13.2100 31.5607 108.4643 -58.6718 -75.9193 -0.0000 -0.0000 55.1693 43.2721 17.3109 15.6491 -7.1250 0.0000 -0.0000 16.0751 52.4372 3.0058 0.0000 0.0000 0.0000 20.9713 42.0010 17.7232 -45.0079 50.7724 -22.2449 0.0000 0.0000 26.8496 -32.4530 -13.0292 8.1587 7.1250 -0.0000 -0.0000 -4.8070 -45.2603 0.0310
0.00 0.00 0.00 -120.4550 -84.7514 125.6460 0.0000 0.0000 0.0000 -14.5140 -10.1995 -24.6519 1.9212 8.6999 24.8610 0.0301 0.3237 -3.4138 0.0247 1.0139 2.7870 0.0000 0.0000 0.0000 23.8568 -1.3788 -4.7936 -6.7320 -15.1020 47.8532 -0.2713 -6.6759 9.7187 -0.0368 -1.2381 3.4042 4.9826 2.8824 -1.2957 2.5752 3.8329 -3.8125 -0.1738 1.7613 -3.0566 -7.5370 -8.3138 -9.8239 11.9319 -12.1959 12.8698 3.8800 -5.5012 6.7453 -0.0000 -0.0000 0.0000 -46.2497 -21.7228 7.7654 85.9590 -59.9382 -56.5011 -0.0000 -0.0000 44.5465 38.8669 21.9087 16.7372 -7.1250 0.0000 -0.0000 11.3434 56.9363 3.3474 -0.0000 -0.0000 0.0000 32.6940 50.1441 -4.4871 -34.7640 44.6429 -14.6473 0.0000 0.0000 10.6137 -32.0797 -25.5926 15.1502 7.1250 -0.0000 -0.0000 -2.7598 -59.4369 0.9735
0.00 0.00 0.00 -116.4610 -86.4913 120.8360 0.0000 0.0000 0.0000 -17.1657 -9.9062 -21.8868 2.0249 8.9177 25.5384 0.0874 -1.2608 -5.2838 0.0265 1.0504 2.8874 0.0000 0.0000 0.0000 21.7918 -2.0481 -9.4335 -8.9655 -16.7855 55.9708 -0.2050 -12.6814 11.3785 -0.0699 -1.7056 4.6927 3.9457 2.0727 -1.1058 2.0877 2.7627 -3.5683 -0.0959 1.2655 -2.9693 -8.6267 -9.1942 -8.6176 11.3438 -13.3978 14.0911 3.7601 -6.1983 7.0777 -0.0000 0.0000 0.0000 -52.5872 -32.4484 -7.9706 72.8020 -58.8524 -45.1635 -0.0000 -0.0000 13.4841 39.7813 28.3377 21.5647 -7.1250 0.0000 -0.0000 12.3519 64.6354 5.9127 -0.0000 0.0000 0.0000 43.1046 58.7234 -20.3986 -34.4319 44.4022 -14.4144 0.0000 0.0000 5.6926 -46.5479 -38.3596 33.2274 7.1250 -0.0000 -0.0000 -27.2009 -77.7989 21.1022
